<?xml version="1.0" standalone="no"?><!DOCTYPE svg PUBLIC "-//W3C//DTD SVG 1.1//EN" "http://www.w3.org/Graphics/SVG/1.1/DTD/svg11.dtd"><svg xmlns:xlink="http://www.w3.org/1999/xlink" version="1.1" class="highcharts-root" style="font-family:&quot;Lucida Grande&quot;, &quot;Lucida Sans Unicode&quot;, Arial, Helvetica, sans-serif;font-size:12px;" xmlns="http://www.w3.org/2000/svg" width="600" height="400" viewBox="0 0 600 400"><desc>Created with Highcharts 8.2.0</desc><defs><clipPath id="highcharts-up5vtc8-277-"><rect x="0" y="0" width="456" height="199" fill="none"></rect></clipPath></defs><rect fill="#ffffff" class="highcharts-background" x="0" y="0" width="600" height="400" rx="0" ry="0"></rect><rect fill="none" class="highcharts-plot-background" x="84" y="24" width="456" height="199"></rect><g class="highcharts-pane-group" data-z-index="0"></g><g class="highcharts-grid highcharts-xaxis-grid" data-z-index="1"><path fill="none" data-z-index="1" class="highcharts-grid-line" d="M 113.5 24 L 113.5 223" opacity="1"></path><path fill="none" data-z-index="1" class="highcharts-grid-line" d="M 169.5 24 L 169.5 223" opacity="1"></path><path fill="none" data-z-index="1" class="highcharts-grid-line" d="M 225.5 24 L 225.5 223" opacity="1"></path><path fill="none" data-z-index="1" class="highcharts-grid-line" d="M 281.5 24 L 281.5 223" opacity="1"></path><path fill="none" data-z-index="1" class="highcharts-grid-line" d="M 337.5 24 L 337.5 223" opacity="1"></path><path fill="none" data-z-index="1" class="highcharts-grid-line" d="M 393.5 24 L 393.5 223" opacity="1"></path><path fill="none" data-z-index="1" class="highcharts-grid-line" d="M 449.5 24 L 449.5 223" opacity="1"></path><path fill="none" data-z-index="1" class="highcharts-grid-line" d="M 505.5 24 L 505.5 223" opacity="1"></path></g><g class="highcharts-grid highcharts-yaxis-grid" data-z-index="1"><path fill="none" stroke="#e6e6e6" stroke-width="1" data-z-index="1" class="highcharts-grid-line" d="M 84 223.5 L 540 223.5" opacity="1"></path><path fill="none" stroke="#e6e6e6" stroke-width="1" data-z-index="1" class="highcharts-grid-line" d="M 84 173.5 L 540 173.5" opacity="1"></path><path fill="none" stroke="#e6e6e6" stroke-width="1" data-z-index="1" class="highcharts-grid-line" d="M 84 124.5 L 540 124.5" opacity="1"></path><path fill="none" stroke="#e6e6e6" stroke-width="1" data-z-index="1" class="highcharts-grid-line" d="M 84 74.5 L 540 74.5" opacity="1"></path><path fill="none" stroke="#e6e6e6" stroke-width="1" data-z-index="1" class="highcharts-grid-line" d="M 84 23.5 L 540 23.5" opacity="1"></path></g><rect fill="none" class="highcharts-plot-border" data-z-index="1" x="84" y="24" width="456" height="199"></rect><g class="highcharts-axis highcharts-xaxis" data-z-index="2"><path fill="none" class="highcharts-tick" stroke="#ccd6eb" stroke-width="1" d="M 113.5 223 L 113.5 233" opacity="1"></path><path fill="none" class="highcharts-tick" stroke="#ccd6eb" stroke-width="1" d="M 169.5 223 L 169.5 233" opacity="1"></path><path fill="none" class="highcharts-tick" stroke="#ccd6eb" stroke-width="1" d="M 225.5 223 L 225.5 233" opacity="1"></path><path fill="none" class="highcharts-tick" stroke="#ccd6eb" stroke-width="1" d="M 281.5 223 L 281.5 233" opacity="1"></path><path fill="none" class="highcharts-tick" stroke="#ccd6eb" stroke-width="1" d="M 337.5 223 L 337.5 233" opacity="1"></path><path fill="none" class="highcharts-tick" stroke="#ccd6eb" stroke-width="1" d="M 393.5 223 L 393.5 233" opacity="1"></path><path fill="none" class="highcharts-tick" stroke="#ccd6eb" stroke-width="1" d="M 449.5 223 L 449.5 233" opacity="1"></path><path fill="none" class="highcharts-tick" stroke="#ccd6eb" stroke-width="1" d="M 505.5 223 L 505.5 233" opacity="1"></path><path fill="none" class="highcharts-axis-line" stroke="#ccd6eb" stroke-width="1" data-z-index="7" d="M 84 223.5 L 540 223.5"></path></g><g class="highcharts-axis highcharts-yaxis" data-z-index="2"><text x="36.0888671875" data-z-index="7" text-anchor="middle" transform="translate(0,0) rotate(270 36.0888671875 123.5)" class="highcharts-axis-title" style="color:#666666;fill:#666666;" y="123.5"><tspan>%</tspan></text><path fill="none" class="highcharts-axis-line" data-z-index="7" d="M 84 24 L 84 223"></path></g><g class="highcharts-series-group" data-z-index="3"><g class="highcharts-series highcharts-series-0 highcharts-column-series" data-z-index="0.1" opacity="1" transform="translate(84,24) scale(1 1)" clip-path="url(#highcharts-up5vtc8-277-)"><rect x="16.5" y="51.5" width="14" height="37" fill="#0090d1" stroke="#ffffff" stroke-width="1" opacity="1" class="highcharts-point"></rect><rect x="72.5" y="47.5" width="14" height="37" fill="#0090d1" stroke="#ffffff" stroke-width="1" opacity="1" class="highcharts-point"></rect><rect x="128.5" y="64.5" width="14" height="36" fill="#0090d1" stroke="#ffffff" stroke-width="1" opacity="1" class="highcharts-point"></rect><rect x="184.5" y="72.5" width="14" height="38" fill="#0090d1" stroke="#ffffff" stroke-width="1" opacity="1" class="highcharts-point"></rect><rect x="240.5" y="48.5" width="14" height="27" fill="#0090d1" stroke="#ffffff" stroke-width="1" opacity="1" class="highcharts-point"></rect><rect x="296.5" y="39.5" width="14" height="17" fill="#0090d1" stroke="#ffffff" stroke-width="1" opacity="1" class="highcharts-point"></rect><rect x="352.5" y="45.5" width="14" height="23" fill="#0090d1" stroke="#ffffff" stroke-width="1" opacity="1" class="highcharts-point"></rect><rect x="408.5" y="56.5" width="14" height="33" fill="#0090d1" stroke="#ffffff" stroke-width="1" opacity="1" class="highcharts-point"></rect></g><g class="highcharts-markers highcharts-series-0 highcharts-column-series" data-z-index="0.1" opacity="1" transform="translate(84,24) scale(1 1)" clip-path="none"></g><g class="highcharts-series highcharts-series-1 highcharts-column-series" data-z-index="0.1" opacity="1" transform="translate(84,24) scale(1 1)" clip-path="url(#highcharts-up5vtc8-277-)"><rect x="16.5" y="88.5" width="14" height="40" fill="#464394" stroke="#ffffff" stroke-width="1" opacity="1" class="highcharts-point"></rect><rect x="72.5" y="84.5" width="14" height="40" fill="#464394" stroke="#ffffff" stroke-width="1" opacity="1" class="highcharts-point"></rect><rect x="128.5" y="100.5" width="14" height="43" fill="#464394" stroke="#ffffff" stroke-width="1" opacity="1" class="highcharts-point"></rect><rect x="184.5" y="110.5" width="14" height="44" fill="#464394" stroke="#ffffff" stroke-width="1" opacity="1" class="highcharts-point"></rect><rect x="240.5" y="75.5" width="14" height="45" fill="#464394" stroke="#ffffff" stroke-width="1" opacity="1" class="highcharts-point"></rect><rect x="296.5" y="56.5" width="14" height="44" fill="#464394" stroke="#ffffff" stroke-width="1" opacity="1" class="highcharts-point"></rect><rect x="352.5" y="68.5" width="14" height="41" fill="#464394" stroke="#ffffff" stroke-width="1" opacity="1" class="highcharts-point"></rect><rect x="408.5" y="89.5" width="14" height="43" fill="#464394" stroke="#ffffff" stroke-width="1" opacity="1" class="highcharts-point"></rect></g><g class="highcharts-markers highcharts-series-1 highcharts-column-series" data-z-index="0.1" opacity="1" transform="translate(84,24) scale(1 1)" clip-path="none"></g><g class="highcharts-series highcharts-series-2 highcharts-column-series" data-z-index="0.1" opacity="1" transform="translate(84,24) scale(1 1)" clip-path="url(#highcharts-up5vtc8-277-)"><rect x="33.5" y="148.5" width="14" height="4" fill="#993300" stroke="#ffffff" stroke-width="1" opacity="1" class="highcharts-point"></rect><rect x="89.5" y="152.5" width="14" height="3" fill="#993300" stroke="#ffffff" stroke-width="1" opacity="1" class="highcharts-point"></rect><rect x="145.5" y="135.5" width="14" height="4" fill="#993300" stroke="#ffffff" stroke-width="1" opacity="1" class="highcharts-point"></rect><rect x="201.5" y="127.5" width="14" height="5" fill="#993300" stroke="#ffffff" stroke-width="1" opacity="1" class="highcharts-point"></rect><rect x="257.5" y="151.5" width="14" height="4" fill="#993300" stroke="#ffffff" stroke-width="1" opacity="1" class="highcharts-point"></rect><rect x="313.5" y="160.5" width="14" height="2" fill="#993300" stroke="#ffffff" stroke-width="1" opacity="1" class="highcharts-point"></rect><rect x="369.5" y="154.5" width="14" height="3" fill="#993300" stroke="#ffffff" stroke-width="1" opacity="1" class="highcharts-point"></rect><rect x="425.5" y="143.5" width="14" height="5" fill="#993300" stroke="#ffffff" stroke-width="1" opacity="1" class="highcharts-point"></rect></g><g class="highcharts-markers highcharts-series-2 highcharts-column-series" data-z-index="0.1" opacity="1" transform="translate(84,24) scale(1 1)" clip-path="none"></g><g class="highcharts-series highcharts-series-3 highcharts-column-series" data-z-index="0.1" opacity="1" transform="translate(84,24) scale(1 1)" clip-path="url(#highcharts-up5vtc8-277-)"><rect x="33.5" y="152.5" width="14" height="1" fill="#8DA69F" stroke="#ffffff" stroke-width="1" opacity="1" class="highcharts-point"></rect><rect x="89.5" y="155.5" width="14" height="2" fill="#8DA69F" stroke="#ffffff" stroke-width="1" opacity="1" class="highcharts-point"></rect><rect x="145.5" y="139.5" width="14" height="2" fill="#8DA69F" stroke="#ffffff" stroke-width="1" opacity="1" class="highcharts-point"></rect><rect x="201.5" y="132.5" width="14" height="3" fill="#8DA69F" stroke="#ffffff" stroke-width="1" opacity="1" class="highcharts-point"></rect><rect x="257.5" y="155.5" width="14" height="2" fill="#8DA69F" stroke="#ffffff" stroke-width="1" opacity="1" class="highcharts-point"></rect><rect x="313.5" y="162.5" width="14" height="2" fill="#8DA69F" stroke="#ffffff" stroke-width="1" opacity="1" class="highcharts-point"></rect><rect x="369.5" y="157.5" width="14" height="2" fill="#8DA69F" stroke="#ffffff" stroke-width="1" opacity="1" class="highcharts-point"></rect><rect x="425.5" y="148.5" width="14" height="2" fill="#8DA69F" stroke="#ffffff" stroke-width="1" opacity="1" class="highcharts-point"></rect></g><g class="highcharts-markers highcharts-series-3 highcharts-column-series" data-z-index="0.1" opacity="1" transform="translate(84,24) scale(1 1)" clip-path="none"></g><g class="highcharts-series highcharts-series-4 highcharts-column-series" data-z-index="0.1" opacity="1" transform="translate(84,24) scale(1 1)" clip-path="url(#highcharts-up5vtc8-277-)"><rect x="33.5" y="153.5" width="14" height="1" fill="#00ccff" stroke="#ffffff" stroke-width="1" opacity="1" class="highcharts-point"></rect><rect x="89.5" y="157.5" width="14" height="1" fill="#00ccff" stroke="#ffffff" stroke-width="1" opacity="1" class="highcharts-point"></rect><rect x="145.5" y="141.5" width="14" height="1" fill="#00ccff" stroke="#ffffff" stroke-width="1" opacity="1" class="highcharts-point"></rect><rect x="201.5" y="135.5" width="14" height="0" fill="#00ccff" stroke="#ffffff" stroke-width="1" opacity="1" class="highcharts-point"></rect><rect x="257.5" y="157.5" width="14" height="0" fill="#00ccff" stroke="#ffffff" stroke-width="1" opacity="1" class="highcharts-point"></rect><rect x="313.5" y="164.5" width="14" height="0" fill="#00ccff" stroke="#ffffff" stroke-width="1" opacity="1" class="highcharts-point"></rect><rect x="369.5" y="159.5" width="14" height="1" fill="#00ccff" stroke="#ffffff" stroke-width="1" opacity="1" class="highcharts-point"></rect><rect x="425.5" y="150.5" width="14" height="0" fill="#00ccff" stroke="#ffffff" stroke-width="1" opacity="1" class="highcharts-point"></rect></g><g class="highcharts-markers highcharts-series-4 highcharts-column-series" data-z-index="0.1" opacity="1" transform="translate(84,24) scale(1 1)" clip-path="none"></g><g class="highcharts-series highcharts-series-5 highcharts-column-series" data-z-index="0.1" opacity="1" transform="translate(84,24) scale(1 1)" clip-path="url(#highcharts-up5vtc8-277-)"><rect x="33.5" y="154.5" width="14" height="1" fill="#AF8E00" stroke="#ffffff" stroke-width="1" opacity="1" class="highcharts-point"></rect><rect x="89.5" y="158.5" width="14" height="1" fill="#AF8E00" stroke="#ffffff" stroke-width="1" opacity="1" class="highcharts-point"></rect><rect x="145.5" y="142.5" width="14" height="1" fill="#AF8E00" stroke="#ffffff" stroke-width="1" opacity="1" class="highcharts-point"></rect><rect x="201.5" y="135.5" width="14" height="2" fill="#AF8E00" stroke="#ffffff" stroke-width="1" opacity="1" class="highcharts-point"></rect><rect x="257.5" y="157.5" width="14" height="2" fill="#AF8E00" stroke="#ffffff" stroke-width="1" opacity="1" class="highcharts-point"></rect><rect x="313.5" y="164.5" width="14" height="1" fill="#AF8E00" stroke="#ffffff" stroke-width="1" opacity="1" class="highcharts-point"></rect><rect x="369.5" y="160.5" width="14" height="1" fill="#AF8E00" stroke="#ffffff" stroke-width="1" opacity="1" class="highcharts-point"></rect><rect x="425.5" y="150.5" width="14" height="2" fill="#AF8E00" stroke="#ffffff" stroke-width="1" opacity="1" class="highcharts-point"></rect></g><g class="highcharts-markers highcharts-series-5 highcharts-column-series" data-z-index="0.1" opacity="1" transform="translate(84,24) scale(1 1)" clip-path="none"></g><g class="highcharts-series highcharts-series-6 highcharts-column-series" data-z-index="0.1" opacity="1" transform="translate(84,24) scale(1 1)" clip-path="url(#highcharts-up5vtc8-277-)"><rect x="33.5" y="155.5" width="14" height="31" fill="#ffcc66" stroke="#ffffff" stroke-width="1" opacity="1" class="highcharts-point"></rect><rect x="89.5" y="159.5" width="14" height="26" fill="#ffcc66" stroke="#ffffff" stroke-width="1" opacity="1" class="highcharts-point"></rect><rect x="145.5" y="143.5" width="14" height="40" fill="#ffcc66" stroke="#ffffff" stroke-width="1" opacity="1" class="highcharts-point"></rect><rect x="201.5" y="137.5" width="14" height="46" fill="#ffcc66" stroke="#ffffff" stroke-width="1" opacity="1" class="highcharts-point"></rect><rect x="257.5" y="159.5" width="14" height="24" fill="#ffcc66" stroke="#ffffff" stroke-width="1" opacity="1" class="highcharts-point"></rect><rect x="313.5" y="165.5" width="14" height="20" fill="#ffcc66" stroke="#ffffff" stroke-width="1" opacity="1" class="highcharts-point"></rect><rect x="369.5" y="161.5" width="14" height="23" fill="#ffcc66" stroke="#ffffff" stroke-width="1" opacity="1" class="highcharts-point"></rect><rect x="425.5" y="152.5" width="14" height="30" fill="#ffcc66" stroke="#ffffff" stroke-width="1" opacity="1" class="highcharts-point"></rect></g><g class="highcharts-markers highcharts-series-6 highcharts-column-series" data-z-index="0.1" opacity="1" transform="translate(84,24) scale(1 1)" clip-path="none"></g><g class="highcharts-series highcharts-series-7 highcharts-column-series" data-z-index="0.1" opacity="1" transform="translate(84,24) scale(1 1)" clip-path="url(#highcharts-up5vtc8-277-)"><rect x="16.5" y="128.5" width="14" height="0" fill="#00FFFF" stroke="#ffffff" stroke-width="1" opacity="1" class="highcharts-point"></rect><rect x="72.5" y="124.5" width="14" height="0" fill="#00FFFF" stroke="#ffffff" stroke-width="1" opacity="1" class="highcharts-point"></rect><rect x="128.5" y="143.5" width="14" height="0" fill="#00FFFF" stroke="#ffffff" stroke-width="1" opacity="1" class="highcharts-point"></rect><rect x="184.5" y="154.5" width="14" height="0" fill="#00FFFF" stroke="#ffffff" stroke-width="1" opacity="1" class="highcharts-point"></rect><rect x="240.5" y="120.5" width="14" height="0" fill="#00FFFF" stroke="#ffffff" stroke-width="1" opacity="1" class="highcharts-point"></rect><rect x="296.5" y="100.5" width="14" height="0" fill="#00FFFF" stroke="#ffffff" stroke-width="1" opacity="1" class="highcharts-point"></rect><rect x="352.5" y="109.5" width="14" height="0" fill="#00FFFF" stroke="#ffffff" stroke-width="1" opacity="1" class="highcharts-point"></rect><rect x="408.5" y="132.5" width="14" height="0" fill="#00FFFF" stroke="#ffffff" stroke-width="1" opacity="1" class="highcharts-point"></rect></g><g class="highcharts-markers highcharts-series-7 highcharts-column-series" data-z-index="0.1" opacity="1" transform="translate(84,24) scale(1 1)" clip-path="none"></g><g class="highcharts-series highcharts-series-8 highcharts-column-series" data-z-index="0.1" opacity="1" transform="translate(84,24) scale(1 1)" clip-path="url(#highcharts-up5vtc8-277-)"><rect x="16.5" y="128.5" width="14" height="47" fill="#6fb114" stroke="#ffffff" stroke-width="1" opacity="1" class="highcharts-point"></rect><rect x="72.5" y="124.5" width="14" height="50" fill="#6fb114" stroke="#ffffff" stroke-width="1" opacity="1" class="highcharts-point"></rect><rect x="128.5" y="143.5" width="14" height="29" fill="#6fb114" stroke="#ffffff" stroke-width="1" opacity="1" class="highcharts-point"></rect><rect x="184.5" y="154.5" width="14" height="16" fill="#6fb114" stroke="#ffffff" stroke-width="1" opacity="1" class="highcharts-point"></rect><rect x="240.5" y="120.5" width="14" height="48" fill="#6fb114" stroke="#ffffff" stroke-width="1" opacity="1" class="highcharts-point"></rect><rect x="296.5" y="100.5" width="14" height="70" fill="#6fb114" stroke="#ffffff" stroke-width="1" opacity="1" class="highcharts-point"></rect><rect x="352.5" y="109.5" width="14" height="65" fill="#6fb114" stroke="#ffffff" stroke-width="1" opacity="1" class="highcharts-point"></rect><rect x="408.5" y="132.5" width="14" height="49" fill="#6fb114" stroke="#ffffff" stroke-width="1" opacity="1" class="highcharts-point"></rect></g><g class="highcharts-markers highcharts-series-8 highcharts-column-series" data-z-index="0.1" opacity="1" transform="translate(84,24) scale(1 1)" clip-path="none"></g><g class="highcharts-series highcharts-series-9 highcharts-column-series" data-z-index="0.1" opacity="1" transform="translate(84,24) scale(1 1)" clip-path="url(#highcharts-up5vtc8-277-)"><rect x="16.5" y="175.5" width="14" height="19" fill="#e48500" stroke="#ffffff" stroke-width="1" opacity="1" class="highcharts-point"></rect><rect x="72.5" y="174.5" width="14" height="20" fill="#e48500" stroke="#ffffff" stroke-width="1" opacity="1" class="highcharts-point"></rect><rect x="128.5" y="172.5" width="14" height="21" fill="#e48500" stroke="#ffffff" stroke-width="1" opacity="1" class="highcharts-point"></rect><rect x="184.5" y="170.5" width="14" height="23" fill="#e48500" stroke="#ffffff" stroke-width="1" opacity="1" class="highcharts-point"></rect><rect x="240.5" y="168.5" width="14" height="24" fill="#e48500" stroke="#ffffff" stroke-width="1" opacity="1" class="highcharts-point"></rect><rect x="296.5" y="170.5" width="14" height="23" fill="#e48500" stroke="#ffffff" stroke-width="1" opacity="1" class="highcharts-point"></rect><rect x="352.5" y="174.5" width="14" height="19" fill="#e48500" stroke="#ffffff" stroke-width="1" opacity="1" class="highcharts-point"></rect><rect x="408.5" y="181.5" width="14" height="13" fill="#e48500" stroke="#ffffff" stroke-width="1" opacity="1" class="highcharts-point"></rect></g><g class="highcharts-markers highcharts-series-9 highcharts-column-series" data-z-index="0.1" opacity="1" transform="translate(84,24) scale(1 1)" clip-path="none"></g><g class="highcharts-series highcharts-series-10 highcharts-column-series" data-z-index="0.1" opacity="1" transform="translate(84,24) scale(1 1)" clip-path="url(#highcharts-up5vtc8-277-)"><rect x="16.5" y="194.5" width="14" height="1" fill="#ff0000" stroke="#ffffff" stroke-width="1" opacity="1" class="highcharts-point"></rect><rect x="72.5" y="194.5" width="14" height="1" fill="#ff0000" stroke="#ffffff" stroke-width="1" opacity="1" class="highcharts-point"></rect><rect x="128.5" y="193.5" width="14" height="2" fill="#ff0000" stroke="#ffffff" stroke-width="1" opacity="1" class="highcharts-point"></rect><rect x="184.5" y="193.5" width="14" height="2" fill="#ff0000" stroke="#ffffff" stroke-width="1" opacity="1" class="highcharts-point"></rect><rect x="240.5" y="192.5" width="14" height="3" fill="#ff0000" stroke="#ffffff" stroke-width="1" opacity="1" class="highcharts-point"></rect><rect x="296.5" y="193.5" width="14" height="2" fill="#ff0000" stroke="#ffffff" stroke-width="1" opacity="1" class="highcharts-point"></rect><rect x="352.5" y="193.5" width="14" height="2" fill="#ff0000" stroke="#ffffff" stroke-width="1" opacity="1" class="highcharts-point"></rect><rect x="408.5" y="194.5" width="14" height="1" fill="#ff0000" stroke="#ffffff" stroke-width="1" opacity="1" class="highcharts-point"></rect></g><g class="highcharts-markers highcharts-series-10 highcharts-column-series" data-z-index="0.1" opacity="1" transform="translate(84,24) scale(1 1)" clip-path="none"></g><g class="highcharts-series highcharts-series-11 highcharts-column-series" data-z-index="0.1" opacity="1" transform="translate(84,24) scale(1 1)" clip-path="url(#highcharts-up5vtc8-277-)"><rect x="16.5" y="195.5" width="14" height="3" fill="#9a5cbc" stroke="#ffffff" stroke-width="1" opacity="1" class="highcharts-point"></rect><rect x="72.5" y="195.5" width="14" height="3" fill="#9a5cbc" stroke="#ffffff" stroke-width="1" opacity="1" class="highcharts-point"></rect><rect x="128.5" y="195.5" width="14" height="3" fill="#9a5cbc" stroke="#ffffff" stroke-width="1" opacity="1" class="highcharts-point"></rect><rect x="184.5" y="195.5" width="14" height="3" fill="#9a5cbc" stroke="#ffffff" stroke-width="1" opacity="1" class="highcharts-point"></rect><rect x="240.5" y="195.5" width="14" height="3" fill="#9a5cbc" stroke="#ffffff" stroke-width="1" opacity="1" class="highcharts-point"></rect><rect x="296.5" y="195.5" width="14" height="3" fill="#9a5cbc" stroke="#ffffff" stroke-width="1" opacity="1" class="highcharts-point"></rect><rect x="352.5" y="195.5" width="14" height="3" fill="#9a5cbc" stroke="#ffffff" stroke-width="1" opacity="1" class="highcharts-point"></rect><rect x="408.5" y="195.5" width="14" height="3" fill="#9a5cbc" stroke="#ffffff" stroke-width="1" opacity="1" class="highcharts-point"></rect></g><g class="highcharts-markers highcharts-series-11 highcharts-column-series" data-z-index="0.1" opacity="1" transform="translate(84,24) scale(1 1)" clip-path="none"></g><g class="highcharts-series highcharts-series-12 highcharts-column-series" data-z-index="0.1" opacity="1" transform="translate(84,24) scale(1 1)" clip-path="url(#highcharts-up5vtc8-277-)"><rect x="33.5" y="186.5" width="14" height="12" fill="#cfa2ca" stroke="#ffffff" stroke-width="1" opacity="1" class="highcharts-point"></rect><rect x="89.5" y="185.5" width="14" height="13" fill="#cfa2ca" stroke="#ffffff" stroke-width="1" opacity="1" class="highcharts-point"></rect><rect x="145.5" y="183.5" width="14" height="15" fill="#cfa2ca" stroke="#ffffff" stroke-width="1" opacity="1" class="highcharts-point"></rect><rect x="201.5" y="183.5" width="14" height="15" fill="#cfa2ca" stroke="#ffffff" stroke-width="1" opacity="1" class="highcharts-point"></rect><rect x="257.5" y="183.5" width="14" height="15" fill="#cfa2ca" stroke="#ffffff" stroke-width="1" opacity="1" class="highcharts-point"></rect><rect x="313.5" y="185.5" width="14" height="13" fill="#cfa2ca" stroke="#ffffff" stroke-width="1" opacity="1" class="highcharts-point"></rect><rect x="369.5" y="184.5" width="14" height="14" fill="#cfa2ca" stroke="#ffffff" stroke-width="1" opacity="1" class="highcharts-point"></rect><rect x="425.5" y="182.5" width="14" height="16" fill="#cfa2ca" stroke="#ffffff" stroke-width="1" opacity="1" class="highcharts-point"></rect></g><g class="highcharts-markers highcharts-series-12 highcharts-column-series" data-z-index="0.1" opacity="1" transform="translate(84,24) scale(1 1)" clip-path="none"></g><g class="highcharts-series highcharts-series-13 highcharts-column-series" data-z-index="0.1" opacity="1" transform="translate(84,24) scale(1 1)" clip-path="url(#highcharts-up5vtc8-277-)"><rect x="33.5" y="198.5" width="14" height="1" fill="#666666" stroke="#ffffff" stroke-width="1" opacity="1" class="highcharts-point"></rect><rect x="89.5" y="198.5" width="14" height="1" fill="#666666" stroke="#ffffff" stroke-width="1" opacity="1" class="highcharts-point"></rect><rect x="145.5" y="198.5" width="14" height="1" fill="#666666" stroke="#ffffff" stroke-width="1" opacity="1" class="highcharts-point"></rect><rect x="201.5" y="198.5" width="14" height="1" fill="#666666" stroke="#ffffff" stroke-width="1" opacity="1" class="highcharts-point"></rect><rect x="257.5" y="198.5" width="14" height="1" fill="#666666" stroke="#ffffff" stroke-width="1" opacity="1" class="highcharts-point"></rect><rect x="313.5" y="198.5" width="14" height="1" fill="#666666" stroke="#ffffff" stroke-width="1" opacity="1" class="highcharts-point"></rect><rect x="369.5" y="198.5" width="14" height="1" fill="#666666" stroke="#ffffff" stroke-width="1" opacity="1" class="highcharts-point"></rect><rect x="425.5" y="198.5" width="14" height="1" fill="#666666" stroke="#ffffff" stroke-width="1" opacity="1" class="highcharts-point"></rect></g><g class="highcharts-markers highcharts-series-13 highcharts-column-series" data-z-index="0.1" opacity="1" transform="translate(84,24) scale(1 1)" clip-path="none"></g><g class="highcharts-series highcharts-series-14 highcharts-column-series" data-z-index="0.1" opacity="1" transform="translate(84,24) scale(1 1)" clip-path="url(#highcharts-up5vtc8-277-)"><rect x="16.5" y="198.5" width="14" height="1" fill="#a0a0a0" stroke="#ffffff" stroke-width="1" opacity="1" class="highcharts-point"></rect><rect x="72.5" y="198.5" width="14" height="1" fill="#a0a0a0" stroke="#ffffff" stroke-width="1" opacity="1" class="highcharts-point"></rect><rect x="128.5" y="198.5" width="14" height="1" fill="#a0a0a0" stroke="#ffffff" stroke-width="1" opacity="1" class="highcharts-point"></rect><rect x="184.5" y="198.5" width="14" height="1" fill="#a0a0a0" stroke="#ffffff" stroke-width="1" opacity="1" class="highcharts-point"></rect><rect x="240.5" y="198.5" width="14" height="1" fill="#a0a0a0" stroke="#ffffff" stroke-width="1" opacity="1" class="highcharts-point"></rect><rect x="296.5" y="198.5" width="14" height="1" fill="#a0a0a0" stroke="#ffffff" stroke-width="1" opacity="1" class="highcharts-point"></rect><rect x="352.5" y="198.5" width="14" height="1" fill="#a0a0a0" stroke="#ffffff" stroke-width="1" opacity="1" class="highcharts-point"></rect><rect x="408.5" y="198.5" width="14" height="1" fill="#a0a0a0" stroke="#ffffff" stroke-width="1" opacity="1" class="highcharts-point"></rect></g><g class="highcharts-markers highcharts-series-14 highcharts-column-series" data-z-index="0.1" opacity="1" transform="translate(84,24) scale(1 1)" clip-path="none"></g></g><text x="20" text-anchor="start" class="highcharts-title" data-z-index="4" style="color:#333333;font-size:18px;fill:#333333;" y="38"></text><text x="280" text-anchor="middle" class="highcharts-subtitle" data-z-index="4" style="color:#666666;fill:#666666;" y="38"></text><text x="20" text-anchor="start" class="highcharts-caption" data-z-index="4" style="color:#666666;fill:#666666;" y="402"></text><g class="highcharts-legend" data-z-index="7" transform="translate(20,294)"><rect fill="none" class="highcharts-legend-box" rx="0" ry="0" x="0" y="0" width="437" height="96" visibility="visible"></rect><g data-z-index="1"><g><g class="highcharts-legend-item highcharts-column-series highcharts-color-undefined highcharts-series-0" data-z-index="1" transform="translate(8,3)"><text x="26" style="color:#333333;cursor:pointer;font-size:12px;font-weight:bold;fill:#333333;" text-anchor="start" data-z-index="2" y="15"><tspan>Hidráulica</tspan></text><rect x="3" y="6" width="10" height="10" fill="#0090d1" rx="5" ry="5" class="highcharts-point" data-z-index="3"></rect></g><g class="highcharts-legend-item highcharts-column-series highcharts-color-undefined highcharts-series-1" data-z-index="1" transform="translate(108.58251953125,3)"><text x="26" y="15" style="color:#333333;cursor:pointer;font-size:12px;font-weight:bold;fill:#333333;" text-anchor="start" data-z-index="2"><tspan>Nuclear</tspan></text><rect x="3" y="6" width="10" height="10" fill="#464394" rx="5" ry="5" class="highcharts-point" data-z-index="3"></rect></g><g class="highcharts-legend-item highcharts-column-series highcharts-color-undefined highcharts-series-2" data-z-index="1" transform="translate(195.552734375,3)"><text x="26" y="15" style="color:#333333;cursor:pointer;font-size:12px;font-weight:bold;fill:#333333;" text-anchor="start" data-z-index="2"><tspan>Carbón</tspan></text><rect x="3" y="6" width="10" height="10" fill="#993300" rx="5" ry="5" class="highcharts-point" data-z-index="3"></rect></g><g class="highcharts-legend-item highcharts-column-series highcharts-color-undefined highcharts-series-3" data-z-index="1" transform="translate(280.41943359375,3)"><text x="26" y="15" style="color:#333333;cursor:pointer;font-size:12px;font-weight:bold;fill:#333333;" text-anchor="start" data-z-index="2"><tspan>Motores diésel</tspan></text><rect x="3" y="6" width="10" height="10" fill="#8DA69F" rx="5" ry="5" class="highcharts-point" data-z-index="3"></rect></g><g class="highcharts-legend-item highcharts-column-series highcharts-color-undefined highcharts-series-4" data-z-index="1" transform="translate(8,20)"><text x="26" y="15" style="color:#333333;cursor:pointer;font-size:12px;font-weight:bold;fill:#333333;" text-anchor="start" data-z-index="2"><tspan>Turbina de gas</tspan></text><rect x="3" y="6" width="10" height="10" fill="#00ccff" rx="5" ry="5" class="highcharts-point" data-z-index="3"></rect></g><g class="highcharts-legend-item highcharts-column-series highcharts-color-undefined highcharts-series-5" data-z-index="1" transform="translate(135.23388671875,20)"><text x="26" y="15" style="color:#333333;cursor:pointer;font-size:12px;font-weight:bold;fill:#333333;" text-anchor="start" data-z-index="2"><tspan>Turbina de vapor</tspan></text><rect x="3" y="6" width="10" height="10" fill="#AF8E00" rx="5" ry="5" class="highcharts-point" data-z-index="3"></rect></g><g class="highcharts-legend-item highcharts-column-series highcharts-color-undefined highcharts-series-6" data-z-index="1" transform="translate(273.982421875,20)"><text x="26" y="15" style="color:#333333;cursor:pointer;font-size:12px;font-weight:bold;fill:#333333;" text-anchor="start" data-z-index="2"><tspan>Ciclo combinado</tspan></text><rect x="3" y="6" width="10" height="10" fill="#ffcc66" rx="5" ry="5" class="highcharts-point" data-z-index="3"></rect></g><g class="highcharts-legend-item highcharts-column-series highcharts-color-undefined highcharts-series-7" data-z-index="1" transform="translate(8,37)"><text x="26" y="15" style="color:#333333;cursor:pointer;font-size:12px;font-weight:bold;fill:#333333;" text-anchor="start" data-z-index="2"><tspan>Hidroeólica</tspan></text><rect x="3" y="6" width="10" height="10" fill="#00FFFF" rx="5" ry="5" class="highcharts-point" data-z-index="3"></rect></g><g class="highcharts-legend-item highcharts-column-series highcharts-color-undefined highcharts-series-8" data-z-index="1" transform="translate(115.3232421875,37)"><text x="26" y="15" style="color:#333333;cursor:pointer;font-size:12px;font-weight:bold;fill:#333333;" text-anchor="start" data-z-index="2"><tspan>Eólica</tspan></text><rect x="3" y="6" width="10" height="10" fill="#6fb114" rx="5" ry="5" class="highcharts-point" data-z-index="3"></rect></g><g class="highcharts-legend-item highcharts-column-series highcharts-color-undefined highcharts-series-9" data-z-index="1" transform="translate(193.03564453125,37)"><text x="26" y="15" style="color:#333333;cursor:pointer;font-size:12px;font-weight:bold;fill:#333333;" text-anchor="start" data-z-index="2"><tspan>Solar fotovoltaica</tspan></text><rect x="3" y="6" width="10" height="10" fill="#e48500" rx="5" ry="5" class="highcharts-point" data-z-index="3"></rect></g><g class="highcharts-legend-item highcharts-column-series highcharts-color-undefined highcharts-series-10" data-z-index="1" transform="translate(332.2578125,37)"><text x="26" y="15" style="color:#333333;cursor:pointer;font-size:12px;font-weight:bold;fill:#333333;" text-anchor="start" data-z-index="2"><tspan>Solar térmica</tspan></text><rect x="3" y="6" width="10" height="10" fill="#ff0000" rx="5" ry="5" class="highcharts-point" data-z-index="3"></rect></g><g class="highcharts-legend-item highcharts-column-series highcharts-color-undefined highcharts-series-11" data-z-index="1" transform="translate(8,54)"><text x="26" y="15" style="color:#333333;cursor:pointer;font-size:12px;font-weight:bold;fill:#333333;" text-anchor="start" data-z-index="2"><tspan>Otras renovables</tspan></text><rect x="3" y="6" width="10" height="10" fill="#9a5cbc" rx="5" ry="5" class="highcharts-point" data-z-index="3"></rect></g><g class="highcharts-legend-item highcharts-column-series highcharts-color-undefined highcharts-series-12" data-z-index="1" transform="translate(144.53564453125,54)"><text x="26" y="15" style="color:#333333;cursor:pointer;font-size:12px;font-weight:bold;fill:#333333;" text-anchor="start" data-z-index="2"><tspan>Cogeneración</tspan></text><rect x="3" y="6" width="10" height="10" fill="#cfa2ca" rx="5" ry="5" class="highcharts-point" data-z-index="3"></rect></g><g class="highcharts-legend-item highcharts-column-series highcharts-color-undefined highcharts-series-13" data-z-index="1" transform="translate(263.9921875,54)"><text x="26" y="15" style="color:#333333;cursor:pointer;font-size:12px;font-weight:bold;fill:#333333;" text-anchor="start" data-z-index="2"><tspan>Residuos no renovables</tspan></text><rect x="3" y="6" width="10" height="10" fill="#666666" rx="5" ry="5" class="highcharts-point" data-z-index="3"></rect></g><g class="highcharts-legend-item highcharts-column-series highcharts-color-undefined highcharts-series-14" data-z-index="1" transform="translate(8,71)"><text x="26" y="15" style="color:#333333;cursor:pointer;font-size:12px;font-weight:bold;fill:#333333;" text-anchor="start" data-z-index="2"><tspan>Residuos renovables</tspan></text><rect x="3" y="6" width="10" height="10" fill="#a0a0a0" rx="5" ry="5" class="highcharts-point" data-z-index="3"></rect></g></g></g></g><g class="highcharts-axis-labels highcharts-xaxis-labels" data-z-index="7"><text x="116.18977646140067" style="color:#666666;cursor:default;font-size:11px;fill:#666666;" text-anchor="end" transform="translate(0,0) rotate(-45 116.18977646140067 239)" y="239" opacity="1">31/Ene/23</text><text x="172.20943248106067" style="color:#666666;cursor:default;font-size:11px;fill:#666666;" text-anchor="end" transform="translate(0,0) rotate(-45 172.20943248106067 239)" y="239" opacity="1">01/Feb/23</text><text x="228.22908850071067" style="color:#666666;cursor:default;font-size:11px;fill:#666666;" text-anchor="end" transform="translate(0,0) rotate(-45 228.22908850071067 239)" y="239" opacity="1">02/Feb/23</text><text x="284.2487445203707" style="color:#666666;cursor:default;font-size:11px;fill:#666666;" text-anchor="end" transform="translate(0,0) rotate(-45 284.2487445203707 239)" y="239" opacity="1">03/Feb/23</text><text x="340.26840054003065" style="color:#666666;cursor:default;font-size:11px;fill:#666666;" text-anchor="end" transform="translate(0,0) rotate(-45 340.26840054003065 239)" y="239" opacity="1">04/Feb/23</text><text x="396.2880565596807" style="color:#666666;cursor:default;font-size:11px;fill:#666666;" text-anchor="end" transform="translate(0,0) rotate(-45 396.2880565596807 239)" y="239" opacity="1">05/Feb/23</text><text x="452.30771257934066" style="color:#666666;cursor:default;font-size:11px;fill:#666666;" text-anchor="end" transform="translate(0,0) rotate(-45 452.30771257934066 239)" y="239" opacity="1">06/Feb/23</text><text x="508.32736859899063" style="color:#666666;cursor:default;font-size:11px;fill:#666666;" text-anchor="end" transform="translate(0,0) rotate(-45 508.32736859899063 239)" y="239" opacity="1">07/Feb/23</text></g><g class="highcharts-axis-labels highcharts-yaxis-labels" data-z-index="7"><text x="69" style="color:#666666;cursor:default;font-size:11px;fill:#666666;" text-anchor="end" transform="translate(0,0)" y="227" opacity="1">0</text><text x="69" style="color:#666666;cursor:default;font-size:11px;fill:#666666;" text-anchor="end" transform="translate(0,0)" y="177" opacity="1">25</text><text x="69" style="color:#666666;cursor:default;font-size:11px;fill:#666666;" text-anchor="end" transform="translate(0,0)" y="128" opacity="1">50</text><text x="69" style="color:#666666;cursor:default;font-size:11px;fill:#666666;" text-anchor="end" transform="translate(0,0)" y="78" opacity="1">75</text><text x="69" style="color:#666666;cursor:default;font-size:11px;fill:#666666;" text-anchor="end" transform="translate(0,0)" y="28" opacity="1">100</text></g><text x="590" class="highcharts-credits" text-anchor="end" data-z-index="8" style="cursor:pointer;color:#999999;font-size:9px;fill:#999999;" y="395"><tspan>Fuente: www.ree.es</tspan></text></svg>